<svg width="252" height="252" viewBox="0 0 252 252" fill="none" xmlns="http://www.w3.org/2000/svg">
<g clip-path="url(#clip0_34_46)">
<path fill-rule="evenodd" clip-rule="evenodd" d="M215.113 36.9379C226.708 48.5332 235.692 61.8823 242.068 76.9838C248.683 92.5634 251.992 108.901 251.992 125.995C251.992 143.091 248.683 159.427 242.068 175.007C235.692 190.108 226.708 203.476 215.113 215.113C203.477 226.708 190.108 235.692 175.007 242.069C159.427 248.683 143.091 251.992 125.995 251.992C108.901 251.992 92.5634 248.683 76.9838 242.069C61.8823 235.692 48.5332 226.708 36.9379 215.113C25.303 203.477 16.2969 190.108 9.92182 175.007C3.30767 159.427 0 143.091 0 125.995C0 108.901 3.30767 92.5634 9.92182 76.9838C16.2969 61.8823 25.303 48.5332 36.9379 36.9379C48.5332 25.303 61.8823 16.2969 76.9838 9.92183C92.5634 3.30768 108.901 0 125.995 0C143.091 0 159.427 3.30768 175.007 9.92183C190.108 16.2969 203.477 25.303 215.113 36.9379ZM233.701 79.4343C227.803 65.4482 219.456 53.0758 208.658 42.3172C197.9 31.5191 185.527 23.1704 171.54 17.2735C157.076 11.1375 141.914 8.06895 126.056 8.06895C110.196 8.06895 95.0343 11.1375 80.57 17.2735C66.5838 23.1704 54.2114 31.5191 43.4528 42.3172C32.6547 53.0758 24.3061 65.4482 18.4092 79.4343C12.2732 93.8987 9.20458 109.06 9.20458 124.919C9.20458 140.78 12.272 155.941 18.4092 170.405C24.3061 184.39 32.6547 196.763 43.4528 207.521C54.2114 218.32 66.5838 226.669 80.57 232.566C95.0343 238.702 110.196 241.77 126.056 241.77C141.914 241.77 157.076 238.702 171.54 232.566C185.527 226.668 197.9 218.32 208.658 207.521C219.456 196.763 227.804 184.39 233.701 170.405C239.837 155.941 242.906 140.78 242.906 124.919C242.906 109.06 239.837 93.8987 233.701 79.4343Z" fill="#4297D7"/>
<path fill-rule="evenodd" clip-rule="evenodd" d="M125.935 11.2965C144.504 11.2965 160.343 17.8509 173.453 30.9609C186.602 44.0708 193.177 59.9099 193.177 78.478C193.177 97.0462 186.602 112.885 173.453 125.995C160.343 139.105 144.504 145.658 125.935 145.658C107.407 145.658 91.588 139.105 78.478 125.995C65.3286 112.885 58.7539 97.0462 58.7539 78.478C58.7539 59.9099 65.3286 44.0708 78.478 30.9609C91.588 17.8509 107.407 11.2965 125.935 11.2965ZM184.033 78.478C184.033 62.4597 178.355 48.7926 166.999 37.4758C155.682 26.1195 141.993 20.4413 125.934 20.4413C109.917 20.4413 96.2488 26.1195 84.932 37.4758C73.5757 48.7926 67.8975 62.4597 67.8975 78.478C67.8975 94.4964 73.5769 108.184 84.9332 119.54C96.25 130.857 109.917 136.516 125.935 136.516C141.994 136.516 155.683 130.857 167 119.54C178.355 108.184 184.033 94.4964 184.033 78.478Z" fill="#4297D7"/>
<path fill-rule="evenodd" clip-rule="evenodd" d="M125.935 34.3678H126.115C127.31 45.0068 129.323 57.8574 132.153 72.9194C137.77 103.043 144.625 129.243 152.712 151.517C157.774 165.423 165.286 181.282 175.246 199.095C180.228 208.021 184.711 215.551 188.694 221.688C185.029 217.782 179.67 213.857 172.617 209.911C158.471 202.062 142.952 198.136 126.057 198.136C109.121 198.136 93.601 202.061 79.4953 209.911C72.403 213.857 67.0237 217.782 63.3574 221.688C67.3417 215.55 71.8244 208.02 76.8057 199.095C86.7669 181.284 94.2788 165.423 99.339 151.517C107.427 129.243 114.28 103.043 119.899 72.9194C122.728 57.8574 124.74 45.0068 125.935 34.3678Z" fill="#4297D7"/>
</g>
<defs>
<clipPath id="clip0_34_46">
<rect width="251.992" height="251.992" fill="white" transform="matrix(1 0 0 -1 0 251.992)"/>
</clipPath>
</defs>
</svg>
