<svg width="123" height="123" viewBox="0 0 123 123" fill="none" xmlns="http://www.w3.org/2000/svg">
<g clip-path="url(#clip0_113_6809)">
<path fill-rule="evenodd" clip-rule="evenodd" d="M104.316 18.7084C109.887 24.2796 114.204 30.6934 117.267 37.9492C120.445 45.4347 122.035 53.2844 122.035 61.4977C122.035 69.7115 120.445 77.5606 117.267 85.0461C114.204 92.3019 109.887 98.7249 104.316 104.316C98.7255 109.887 92.3019 114.204 85.0461 117.267C77.5606 120.445 69.7115 122.035 61.4977 122.035C53.2844 122.035 45.4348 120.445 37.9492 117.267C30.6934 114.204 24.2796 109.887 18.7084 104.316C13.1183 98.7255 8.79108 92.3019 5.72806 85.0461C2.55017 77.5606 0.960938 69.7115 0.960938 61.4977C0.960938 53.2844 2.55017 45.4347 5.72806 37.9492C8.79108 30.6934 13.1183 24.2796 18.7084 18.7084C24.2796 13.1182 30.6934 8.79107 37.9492 5.72804C45.4348 2.55016 53.2844 0.960922 61.4977 0.960922C69.7115 0.960922 77.5606 2.55016 85.0461 5.72804C92.3019 8.79107 98.7255 13.1182 104.316 18.7084ZM113.247 39.1266C110.413 32.4067 106.403 26.4622 101.215 21.293C96.0455 16.1049 90.101 12.0936 83.3805 9.26031C76.4308 6.31216 69.1463 4.8378 61.527 4.8378C53.9065 4.8378 46.622 6.31216 39.6723 9.26031C32.9524 12.0936 27.0078 16.1049 21.8386 21.293C16.6505 26.4622 12.6392 32.4067 9.80596 39.1266C6.85781 46.0763 5.38345 53.3608 5.38345 60.9807C5.38345 68.6012 6.85724 75.8858 9.80596 82.8354C12.6392 89.5548 16.6505 95.4993 21.8386 100.668C27.0078 105.857 32.9524 109.868 39.6723 112.702C46.622 115.65 53.9065 117.124 61.527 117.124C69.1463 117.124 76.4308 115.65 83.3805 112.702C90.101 109.868 96.0455 105.857 101.215 100.668C106.403 95.4993 110.414 89.5548 113.247 82.8354C116.195 75.8858 117.67 68.6012 117.67 60.9807C117.67 53.3608 116.195 46.0763 113.247 39.1266Z" fill="white"/>
<path fill-rule="evenodd" clip-rule="evenodd" d="M61.469 6.38856C70.3904 6.38856 78.0006 9.53773 84.2995 15.8367C90.6174 22.1356 93.7763 29.7457 93.7763 38.6672C93.7763 47.5886 90.6174 55.1987 84.2995 61.4977C78.0006 67.7966 70.3904 70.9452 61.469 70.9452C52.5665 70.9452 44.9661 67.7966 38.6672 61.4977C32.3493 55.1987 29.1904 47.5886 29.1904 38.6672C29.1904 29.7457 32.3493 22.1356 38.6672 15.8367C44.9661 9.53773 52.5665 6.38856 61.469 6.38856ZM89.3831 38.6672C89.3831 30.9708 86.6549 24.4043 81.1985 18.9669C75.7612 13.5105 69.1842 10.7824 61.4684 10.7824C53.7726 10.7824 47.2055 13.5105 41.7681 18.9669C36.3118 24.4043 33.5836 30.9708 33.5836 38.6672C33.5836 46.3635 36.3123 52.9398 41.7687 58.3962C47.2061 63.8336 53.7726 66.5525 61.469 66.5525C69.1848 66.5525 75.7617 63.8336 81.1991 58.3962C86.6549 52.9398 89.3831 46.3635 89.3831 38.6672Z" fill="white"/>
<path fill-rule="evenodd" clip-rule="evenodd" d="M61.469 17.4736H61.5551C62.1295 22.5853 63.0967 28.7596 64.4562 35.9964C67.1551 50.4701 70.449 63.0582 74.3345 73.7601C76.7663 80.4415 80.3755 88.0615 85.161 96.6199C87.5549 100.909 89.7087 104.526 91.6225 107.475C89.8615 105.598 87.2867 103.713 83.898 101.817C77.1011 98.0454 69.6449 96.1593 61.5275 96.1593C53.3901 96.1593 45.9333 98.0449 39.1559 101.817C35.7483 103.713 33.1637 105.598 31.4022 107.475C33.3165 104.526 35.4703 100.908 37.8637 96.6199C42.6497 88.062 46.259 80.4415 48.6902 73.7601C52.5763 63.0582 55.869 50.4701 58.5685 35.9964C59.928 28.7596 60.8946 22.5853 61.469 17.4736Z" fill="white"/>
</g>
<defs>
<clipPath id="clip0_113_6809">
<rect width="121.074" height="121.074" fill="white" transform="matrix(1 0 0 -1 0.960938 122.035)"/>
</clipPath>
</defs>
</svg>
