<svg width="33.333374" height="33.333374" viewBox="0 0 33.3334 33.3334" fill="none" xmlns="http://www.w3.org/2000/svg" xmlns:xlink="http://www.w3.org/1999/xlink">
	<desc>
			Created with Pixso.
	</desc>
	<defs/>
	<path id="Vector" d="M16.66 16.66C14.37 16.66 12.41 15.85 10.78 14.21C9.14 12.58 8.33 10.62 8.33 8.33C8.33 6.04 9.14 4.07 10.78 2.44C12.41 0.81 14.37 0 16.66 0C18.95 0 20.92 0.81 22.55 2.44C24.18 4.07 25 6.04 25 8.33C25 10.62 24.18 12.58 22.55 14.21C20.92 15.85 18.95 16.66 16.66 16.66ZM0 33.33L0 27.5C0 26.31 0.3 25.23 0.91 24.24C1.52 23.25 2.32 22.5 3.33 21.97C5.48 20.9 7.67 20.09 9.89 19.55C12.11 19.02 14.37 18.75 16.66 18.75C18.95 18.74 21.21 19.01 23.43 19.55C25.65 20.09 27.84 20.9 30 21.97C31 22.5 31.81 23.25 32.42 24.24C33.03 25.23 33.33 26.32 33.33 27.5L33.33 33.33L0 33.33Z" fill="#999999" fill-opacity="1.000000" fill-rule="nonzero"/>
</svg>
