<svg width="50.000000" height="50.000000" viewBox="0 0 50 50" fill="none" xmlns="http://www.w3.org/2000/svg" xmlns:xlink="http://www.w3.org/1999/xlink">
	<desc>
			Created with Pixso.
	</desc>
	<defs>
		<clipPath id="clip34_6">
			<rect id="material-symbols:person" rx="0.000000" width="49.000000" height="49.000000" transform="translate(0.500000 0.500000)" fill="white" fill-opacity="0"/>
		</clipPath>
	</defs>
	<rect id="material-symbols:person" rx="0.000000" width="49.000000" height="49.000000" transform="translate(0.500000 0.500000)" fill="#FFFFFF" fill-opacity="0"/>
	<g clip-path="url(#clip34_6)">
		<path id="Vector" d="M25 24.99C22.7 24.99 20.74 24.18 19.11 22.55C17.48 20.92 16.66 18.95 16.66 16.66C16.66 14.37 17.48 12.41 19.11 10.78C20.74 9.14 22.7 8.33 25 8.33C27.29 8.33 29.25 9.14 30.88 10.78C32.51 12.41 33.33 14.37 33.33 16.66C33.33 18.95 32.51 20.92 30.88 22.55C29.25 24.18 27.29 24.99 25 24.99ZM8.33 41.66L8.33 35.83C8.33 34.65 8.63 33.56 9.24 32.57C9.85 31.59 10.66 30.83 11.66 30.31C13.81 29.23 16 28.42 18.22 27.89C20.45 27.35 22.7 27.08 25 27.08C27.29 27.08 29.54 27.35 31.77 27.89C33.99 28.43 36.18 29.23 38.33 30.31C39.34 30.83 40.14 31.58 40.75 32.57C41.36 33.56 41.66 34.65 41.66 35.83L41.66 41.66L8.33 41.66Z" fill="#2A61C6" fill-opacity="1.000000" fill-rule="nonzero"/>
	</g>
	<rect id="Rectangle 48" x="3.000000" y="45.000000" width="44.000000" height="5.000000" fill="#F2B705" fill-opacity="1.000000"/>
</svg>
