<svg width="50.000000" height="50.000000" viewBox="0 0 50 50" fill="none" xmlns="http://www.w3.org/2000/svg" xmlns:xlink="http://www.w3.org/1999/xlink">
	<desc>
			Created with Pixso.
	</desc>
	<defs>
		<clipPath id="clip46_2850">
			<rect id="fluent:shifts-day-20-filled" rx="0.000000" width="49.000000" height="49.000000" transform="translate(0.500000 0.500000)" fill="white" fill-opacity="0"/>
		</clipPath>
		<clipPath id="clip46_2672">
			<rect id="fluent:shifts-day-20-filled" rx="0.000000" width="49.000000" height="49.000000" transform="translate(0.500000 0.500000)" fill="white" fill-opacity="0"/>
		</clipPath>
	</defs>
	<rect id="fluent:shifts-day-20-filled" rx="0.000000" width="49.000000" height="49.000000" transform="translate(0.500000 0.500000)" fill="#FFFFFF" fill-opacity="0"/>
	<g clip-path="url(#clip46_2672)">
		<rect id="Rectangle 48" x="3.000000" y="45.000000" width="44.000000" height="5.000000" fill="#F2B705" fill-opacity="1.000000"/>
		<rect id="fluent:shifts-day-20-filled" rx="0.000000" width="49.000000" height="49.000000" transform="translate(0.500000 0.500000)" fill="#FFFFFF" fill-opacity="0"/>
		<g clip-path="url(#clip46_2850)">
			<path id="Vector" d="M7.5 13.75C7.5 12.09 8.15 10.5 9.33 9.33C10.5 8.15 12.09 7.5 13.75 7.5L36.25 7.5C37.9 7.5 39.49 8.15 40.66 9.33C41.84 10.5 42.5 12.09 42.5 13.75L42.5 36.25C42.5 37.9 41.84 39.49 40.66 40.66C39.49 41.84 37.9 42.5 36.25 42.5L13.75 42.5C12.09 42.5 10.5 41.84 9.33 40.66C8.15 39.49 7.5 37.9 7.5 36.25L7.5 13.75ZM16.02 18.85C15.66 19.21 15.36 19.64 15.14 20.11L15.07 20.29C14.96 20.59 14.98 20.93 15.12 21.23C15.26 21.52 15.51 21.75 15.82 21.87C16.13 21.98 16.46 21.97 16.76 21.83C17.06 21.7 17.3 21.45 17.42 21.15L17.42 21.14L17.48 21.02C17.57 20.86 17.68 20.72 17.8 20.6C18.08 20.31 18.57 19.99 19.42 19.99C20.41 19.99 21.03 20.56 21.29 21.35C21.43 21.76 21.45 22.21 21.34 22.64C21.24 23.06 21.02 23.45 20.7 23.76C20.25 24.15 19.76 24.51 19.25 24.83L19.15 24.9C18.6 25.26 17.97 25.68 17.39 26.18C16.1 27.28 15 28.81 15 31.25C15 31.58 15.13 31.89 15.36 32.13C15.6 32.36 15.91 32.5 16.25 32.5L22.5 32.5C22.83 32.5 23.14 32.36 23.38 32.13C23.61 31.89 23.75 31.58 23.75 31.25C23.75 30.91 23.61 30.6 23.38 30.36C23.14 30.13 22.83 30 22.5 30L17.67 30C17.91 29.19 18.4 28.6 19.01 28.08C19.51 27.68 20.03 27.3 20.56 26.96L20.63 26.92C21.21 26.54 21.86 26.1 22.41 25.58C23.86 24.23 24.2 22.22 23.67 20.58C23.12 18.9 21.63 17.49 19.42 17.49C17.81 17.49 16.71 18.15 16.02 18.85ZM28.75 17.5C28.41 17.5 28.1 17.63 27.86 17.86C27.63 18.1 27.5 18.41 27.5 18.75L27.5 25C27.5 25.33 27.63 25.64 27.86 25.88C28.1 26.11 28.41 26.25 28.75 26.25L32.5 26.25L32.5 31.25C32.5 31.58 32.63 31.89 32.86 32.13C33.1 32.36 33.41 32.5 33.75 32.5C34.08 32.5 34.39 32.36 34.63 32.13C34.86 31.89 35 31.58 35 31.25L35 18.75C35 18.41 34.86 18.1 34.63 17.86C34.39 17.63 34.08 17.5 33.75 17.5C33.41 17.5 33.1 17.63 32.86 17.86C32.63 18.1 32.5 18.41 32.5 18.75L32.5 23.75L30 23.75L30 18.75C30 18.41 29.86 18.1 29.63 17.86C29.39 17.63 29.08 17.5 28.75 17.5Z" fill="#2A61C6" fill-opacity="1.000000" fill-rule="nonzero"/>
		</g>
	</g>
</svg>
