<svg width="35.000000" height="35.000000" viewBox="0 0 35 35" fill="none" xmlns="http://www.w3.org/2000/svg" xmlns:xlink="http://www.w3.org/1999/xlink">
	<desc>
			Created with Pixso.
	</desc>
	<defs/>
	<path id="Vector" d="M0 6.25C0 4.59 0.65 3 1.83 1.83C3 0.65 4.59 0 6.25 0L28.75 0C30.4 0 31.99 0.65 33.16 1.83C34.34 3 35 4.59 35 6.25L35 28.75C35 30.4 34.34 31.99 33.16 33.16C31.99 34.34 30.4 35 28.75 35L6.25 35C4.59 35 3 34.34 1.83 33.16C0.65 31.99 0 30.4 0 28.75L0 6.25ZM8.52 11.35C8.16 11.71 7.86 12.14 7.64 12.61L7.57 12.79C7.46 13.09 7.48 13.43 7.62 13.73C7.76 14.02 8.01 14.25 8.32 14.37C8.63 14.48 8.96 14.47 9.26 14.33C9.56 14.2 9.8 13.95 9.92 13.65L9.92 13.64L9.98 13.52C10.07 13.36 10.18 13.22 10.3 13.1C10.58 12.81 11.07 12.49 11.92 12.49C12.91 12.49 13.53 13.06 13.79 13.85C13.93 14.26 13.95 14.71 13.84 15.14C13.74 15.56 13.52 15.95 13.2 16.26C12.75 16.65 12.26 17.01 11.75 17.33L11.65 17.4C11.1 17.76 10.47 18.18 9.89 18.68C8.6 19.78 7.5 21.31 7.5 23.75C7.5 24.08 7.63 24.39 7.86 24.63C8.1 24.86 8.41 25 8.75 25L15 25C15.33 25 15.64 24.86 15.88 24.63C16.11 24.39 16.25 24.08 16.25 23.75C16.25 23.41 16.11 23.1 15.88 22.86C15.64 22.63 15.33 22.5 15 22.5L10.17 22.5C10.41 21.69 10.9 21.1 11.51 20.58C12.01 20.18 12.53 19.8 13.06 19.46L13.13 19.42C13.71 19.04 14.36 18.6 14.91 18.08C16.36 16.73 16.7 14.72 16.17 13.08C15.62 11.4 14.13 9.98 11.92 9.98C10.31 9.98 9.21 10.65 8.52 11.35ZM21.25 10C20.91 10 20.6 10.13 20.36 10.36C20.13 10.6 20 10.91 20 11.25L20 17.5C20 17.83 20.13 18.14 20.36 18.38C20.6 18.61 20.91 18.75 21.25 18.75L25 18.75L25 23.75C25 24.08 25.13 24.39 25.36 24.63C25.6 24.86 25.91 25 26.25 25C26.58 25 26.89 24.86 27.13 24.63C27.36 24.39 27.5 24.08 27.5 23.75L27.5 11.25C27.5 10.91 27.36 10.6 27.13 10.36C26.89 10.13 26.58 10 26.25 10C25.91 10 25.6 10.13 25.36 10.36C25.13 10.6 25 10.91 25 11.25L25 16.25L22.5 16.25L22.5 11.25C22.5 10.91 22.36 10.6 22.13 10.36C21.89 10.13 21.58 10 21.25 10Z" fill="#999999" fill-opacity="1.000000" fill-rule="nonzero"/>
</svg>
