<svg width="37.500000" height="41.666626" viewBox="0 0 37.5 41.6666" fill="none" xmlns="http://www.w3.org/2000/svg" xmlns:xlink="http://www.w3.org/1999/xlink">
	<desc>
			Created with Pixso.
	</desc>
	<defs/>
	<path id="Vector" d="M27.08 0C27.46 0 27.82 0.1 28.12 0.28L28.19 0.32C28.78 0.69 29.16 1.34 29.16 2.08L29.16 4.16L31.25 4.16C32.84 4.16 34.37 4.77 35.53 5.86C36.69 6.96 37.39 8.45 37.48 10.05L37.5 10.41L37.5 35.41C37.5 37.01 36.89 38.54 35.79 39.7C34.7 40.86 33.2 41.56 31.61 41.65L31.25 41.66L6.25 41.66C4.65 41.66 3.12 41.05 1.96 39.96C0.8 38.87 0.1 37.37 0.01 35.78L0 35.41L0 10.41C-0.01 8.82 0.6 7.28 1.7 6.12C2.79 4.96 4.29 4.27 5.88 4.17L6.25 4.16L8.33 4.16L8.33 2.08C8.33 1.71 8.43 1.34 8.62 1.02C8.8 0.7 9.07 0.44 9.4 0.26L9.59 0.16L9.73 0.11L9.94 0.05L10.16 0.01L10.41 0C10.53 0 10.64 0 10.75 0.02L11 0.08L11.08 0.11L11.21 0.16C11.89 0.44 12.39 1.07 12.48 1.83L12.5 2.08L12.5 4.16L25 4.16L25 2.08C25 1.53 25.21 1 25.61 0.61C26 0.21 26.53 0 27.08 0ZM33.33 14.58L4.16 14.58L4.16 34.63C4.16 36.1 4.97 37.31 6 37.48L6.25 37.5L31.25 37.5C32.31 37.5 33.2 36.39 33.31 34.96L33.33 34.63L33.33 14.58Z" fill="#999999" fill-opacity="1.000000" fill-rule="nonzero"/>
	<path id="Vector" d="M12.53 22.91C12.53 23.46 12.31 23.99 11.92 24.38C11.53 24.78 11 25 10.44 25C10.16 25.01 9.88 24.96 9.62 24.87C9.35 24.77 9.11 24.62 8.91 24.42C8.7 24.23 8.54 24 8.43 23.74C8.32 23.48 8.26 23.2 8.26 22.92C8.26 22.64 8.31 22.36 8.43 22.1C8.54 21.84 8.7 21.6 8.9 21.41C9.1 21.21 9.34 21.06 9.61 20.96C9.87 20.86 10.15 20.82 10.43 20.83C11.59 20.83 12.53 21.76 12.53 22.91ZM20.86 22.91C20.86 23.46 20.64 23.99 20.25 24.38C19.86 24.78 19.33 25 18.78 25C18.49 25.01 18.21 24.96 17.95 24.87C17.69 24.77 17.44 24.62 17.24 24.42C17.04 24.23 16.87 24 16.76 23.74C16.65 23.48 16.59 23.2 16.59 22.92C16.59 22.64 16.65 22.36 16.76 22.1C16.87 21.84 17.03 21.6 17.23 21.41C17.44 21.21 17.68 21.06 17.94 20.96C18.2 20.86 18.48 20.82 18.77 20.83C19.93 20.83 20.86 21.76 20.86 22.91ZM29.2 22.91C29.2 23.46 28.98 23.99 28.59 24.38C28.2 24.78 27.67 25 27.12 25C26.84 25.01 26.56 24.96 26.29 24.87C26.03 24.77 25.79 24.62 25.58 24.42C25.38 24.23 25.22 24 25.11 23.74C24.99 23.48 24.94 23.2 24.94 22.92C24.94 22.64 24.99 22.36 25.1 22.1C25.21 21.84 25.37 21.6 25.58 21.41C25.78 21.21 26.02 21.06 26.28 20.96C26.55 20.86 26.83 20.82 27.11 20.83C28.27 20.83 29.2 21.76 29.2 22.91ZM18.79 27.08C19.34 27.08 19.87 27.3 20.26 27.69C20.65 28.08 20.87 28.61 20.87 29.16C20.87 29.71 20.65 30.24 20.26 30.63C19.87 31.03 19.34 31.25 18.79 31.25C18.51 31.26 18.22 31.21 17.96 31.12C17.7 31.02 17.45 30.87 17.25 30.67C17.05 30.48 16.88 30.25 16.77 29.99C16.66 29.73 16.6 29.45 16.6 29.17C16.6 28.89 16.66 28.61 16.77 28.35C16.88 28.09 17.04 27.85 17.24 27.66C17.45 27.46 17.69 27.31 17.95 27.21C18.21 27.11 18.49 27.07 18.78 27.08L18.79 27.08ZM12.53 29.16C12.53 29.71 12.31 30.24 11.92 30.63C11.53 31.03 11 31.25 10.44 31.25C10.16 31.26 9.88 31.21 9.62 31.12C9.35 31.02 9.11 30.87 8.91 30.67C8.7 30.48 8.54 30.25 8.43 29.99C8.32 29.73 8.26 29.45 8.26 29.17C8.26 28.89 8.31 28.61 8.43 28.35C8.54 28.09 8.7 27.85 8.9 27.66C9.1 27.46 9.34 27.31 9.61 27.21C9.87 27.11 10.15 27.07 10.43 27.08C11.59 27.08 12.53 28.01 12.53 29.16Z" fill="#999999" fill-opacity="1.000000" fill-rule="nonzero"/>
</svg>
