<svg width="50.000000" height="53.000000" viewBox="0 0 50 53" fill="none" xmlns="http://www.w3.org/2000/svg" xmlns:xlink="http://www.w3.org/1999/xlink">
	<desc>
			Created with Pixso.
	</desc>
	<defs>
		<clipPath id="clip177_776">
			<rect id="tabler:calendar-week-filled" rx="0.000000" width="49.000000" height="49.000000" transform="translate(0.500000 0.500000)" fill="white" fill-opacity="0"/>
		</clipPath>
	</defs>
	<rect id="Rectangle 48" x="3.000000" y="48.000000" width="44.000000" height="5.000000" fill="#F2B705" fill-opacity="1.000000"/>
	<rect id="tabler:calendar-week-filled" rx="0.000000" width="49.000000" height="49.000000" transform="translate(0.500000 0.500000)" fill="#FFFFFF" fill-opacity="0"/>
	<g clip-path="url(#clip177_776)">
		<path id="Vector" d="M33.33 3.16C33.71 3.16 34.07 3.27 34.37 3.44L34.44 3.48C35.03 3.85 35.41 4.51 35.41 5.25L35.41 7.33L37.5 7.33C39.09 7.33 40.62 7.94 41.78 9.03C42.94 10.12 43.64 11.62 43.73 13.21L43.75 13.58L43.75 38.58C43.75 40.17 43.14 41.71 42.04 42.87C40.95 44.03 39.45 44.72 37.86 44.82L37.5 44.83L12.5 44.83C10.9 44.83 9.37 44.22 8.21 43.13C7.05 42.03 6.35 40.54 6.26 38.95L6.25 38.58L6.25 13.58C6.24 11.98 6.85 10.45 7.95 9.29C9.04 8.13 10.54 7.43 12.13 7.34L12.5 7.33L14.58 7.33L14.58 5.25C14.58 4.87 14.68 4.51 14.87 4.19C15.05 3.87 15.32 3.6 15.65 3.42L15.84 3.33L15.98 3.28L16.19 3.22L16.41 3.18L16.66 3.16C16.78 3.16 16.89 3.17 17 3.19L17.25 3.25L17.33 3.27L17.46 3.32C18.14 3.6 18.64 4.24 18.73 5L18.75 5.25L18.75 7.33L31.25 7.33L31.25 5.25C31.25 4.69 31.46 4.16 31.86 3.77C32.25 3.38 32.78 3.16 33.33 3.16ZM39.58 17.75L10.41 17.75L10.41 37.8C10.41 39.27 11.22 40.48 12.25 40.64L12.5 40.66L37.5 40.66C38.56 40.66 39.45 39.56 39.56 38.13L39.58 37.8L39.58 17.75Z" fill="#2A61C6" fill-opacity="1.000000" fill-rule="nonzero"/>
		<path id="Vector" d="M18.78 26.08C18.78 26.63 18.56 27.16 18.17 27.55C17.78 27.94 17.25 28.16 16.69 28.16C16.41 28.17 16.13 28.13 15.87 28.03C15.6 27.93 15.36 27.78 15.16 27.59C14.95 27.4 14.79 27.16 14.68 26.9C14.57 26.64 14.51 26.37 14.51 26.08C14.51 25.8 14.56 25.52 14.68 25.26C14.79 25 14.95 24.77 15.15 24.58C15.35 24.38 15.59 24.23 15.86 24.13C16.12 24.03 16.4 23.98 16.68 23.99C17.84 23.99 18.78 24.93 18.78 26.08ZM27.11 26.08C27.11 26.63 26.89 27.16 26.5 27.55C26.11 27.94 25.58 28.16 25.03 28.16C24.74 28.17 24.46 28.13 24.2 28.03C23.94 27.93 23.69 27.78 23.49 27.59C23.29 27.4 23.12 27.16 23.01 26.9C22.9 26.64 22.84 26.37 22.84 26.08C22.84 25.8 22.9 25.52 23.01 25.26C23.12 25 23.28 24.77 23.48 24.58C23.69 24.38 23.93 24.23 24.19 24.13C24.45 24.03 24.73 23.98 25.02 23.99C26.18 23.99 27.11 24.93 27.11 26.08ZM35.45 26.08C35.45 26.63 35.23 27.16 34.84 27.55C34.45 27.94 33.92 28.16 33.37 28.16C33.09 28.17 32.81 28.13 32.54 28.03C32.28 27.93 32.04 27.78 31.83 27.59C31.63 27.4 31.47 27.16 31.36 26.9C31.24 26.64 31.19 26.37 31.19 26.08C31.19 25.8 31.24 25.52 31.35 25.26C31.46 25 31.62 24.77 31.83 24.58C32.03 24.38 32.27 24.23 32.53 24.13C32.8 24.03 33.08 23.98 33.36 23.99C34.52 23.99 35.45 24.93 35.45 26.08ZM25.04 30.24C25.59 30.24 26.12 30.46 26.51 30.86C26.9 31.25 27.12 31.78 27.12 32.33C27.12 32.88 26.9 33.41 26.51 33.8C26.12 34.19 25.59 34.41 25.04 34.41C24.76 34.42 24.47 34.38 24.21 34.28C23.95 34.18 23.71 34.03 23.5 33.84C23.3 33.65 23.13 33.41 23.02 33.15C22.91 32.89 22.85 32.62 22.85 32.33C22.85 32.05 22.91 31.77 23.02 31.51C23.13 31.25 23.29 31.02 23.49 30.83C23.7 30.63 23.94 30.48 24.2 30.38C24.46 30.28 24.74 30.23 25.03 30.24L25.04 30.24ZM18.78 32.33C18.78 32.88 18.56 33.41 18.17 33.8C17.78 34.19 17.25 34.41 16.69 34.41C16.41 34.42 16.13 34.38 15.87 34.28C15.6 34.18 15.36 34.03 15.16 33.84C14.95 33.65 14.79 33.41 14.68 33.15C14.57 32.89 14.51 32.62 14.51 32.33C14.51 32.05 14.56 31.77 14.68 31.51C14.79 31.25 14.95 31.02 15.15 30.83C15.35 30.63 15.59 30.48 15.86 30.38C16.12 30.28 16.4 30.23 16.68 30.24C17.84 30.24 18.78 31.18 18.78 32.33Z" fill="#2A61C6" fill-opacity="1.000000" fill-rule="nonzero"/>
	</g>
</svg>
